# xmcd CD database file
#
# Track frame offsets:
#	150
#	25656
#	46012
#	73220
#	92212
#	112543
#	140755
#	161302
#	186890
#	208892
#	234487
#	258871
#
# Disc length: 3800 seconds
#
# Revision: 0
# Processed by: cddbd v1.5.1PL2 Copyright (c) Steve Scherf et al.
# Submitted via: CDex 1.51
#
DISCID=9c0ed60c
DTITLE=中山美穂 - Complete Single Box Disc 10 - THE REMIXES NEW YORK GROOVE/THE REMIXES LOS ANGELES GROOVE
DYEAR=2006
DGENRE=J-Pop
TTITLE0=ANGEL SOUL
TTITLE1=小さな太陽　-CARROT RED
TTITLE2=The Eternities
TTITLE3=SHINING FOR YOU
TTITLE4=You're My Only Shinin' Star
TTITLE5=遠い街のどこかで…
TTITLE6=Love For You
TTITLE7=Sea Paradise -OLの反乱-
TTITLE8=Blue Stone
TTITLE9=付和雷同　-WHAT I DO-
TTITLE10=I Know
TTITLE11=Treasure
EXTD=YEAR: 2006
EXTT0=
EXTT1=
EXTT2=
EXTT3=
EXTT4=
EXTT5=
EXTT6=
EXTT7=
EXTT8=
EXTT9=
EXTT10=
EXTT11=
PLAYORDER=
